<mxfile host="localhost" modified="2020-05-15T18:10:39.721Z" agent="5.0 (Macintosh; Intel Mac OS X 10_14_6) AppleWebKit/537.36 (KHTML, like Gecko) Code/1.45.1 Chrome/78.0.3904.130 Electron/7.2.4 Safari/537.36" etag="b8i-HWgSt9corhzZtlma" version="13.0.9" pages="2">
    <diagram id="3STmzSDWwZoWlWuXbKKn" name="Page-1">
        <mxGraphModel dx="818" dy="606" grid="1" gridSize="10" guides="1" tooltips="1" connect="1" arrows="1" fold="1" page="1" pageScale="1" pageWidth="850" pageHeight="1100" math="0" shadow="0">
            <root>
                <mxCell id="0"/>
                <mxCell id="1" parent="0"/>
                <mxCell id="2" value="server.js&lt;br&gt;" style="rounded=1;whiteSpace=wrap;html=1;" parent="1" vertex="1">
                    <mxGeometry x="120" y="30" width="120" height="60" as="geometry"/>
                </mxCell>
                <mxCell id="3" value="client.js&lt;br&gt;" style="rounded=1;whiteSpace=wrap;html=1;" parent="1" vertex="1">
                    <mxGeometry x="360" y="30" width="120" height="60" as="geometry"/>
                </mxCell>
                <mxCell id="4" value="" style="rounded=0;whiteSpace=wrap;html=1;" parent="1" vertex="1">
                    <mxGeometry x="80" y="240" width="440" height="100" as="geometry"/>
                </mxCell>
                <mxCell id="5" value="ES6&lt;br&gt;" style="text;html=1;strokeColor=none;fillColor=none;align=center;verticalAlign=middle;whiteSpace=wrap;rounded=0;" parent="1" vertex="1">
                    <mxGeometry x="80" y="250" width="40" height="20" as="geometry"/>
                </mxCell>
                <mxCell id="6" value="" style="ellipse;whiteSpace=wrap;html=1;" parent="1" vertex="1">
                    <mxGeometry x="90" y="278" width="90" height="40" as="geometry"/>
                </mxCell>
                <mxCell id="7" value="" style="ellipse;whiteSpace=wrap;html=1;" parent="1" vertex="1">
                    <mxGeometry x="200" y="278" width="90" height="40" as="geometry"/>
                </mxCell>
                <mxCell id="8" value="" style="ellipse;whiteSpace=wrap;html=1;" parent="1" vertex="1">
                    <mxGeometry x="309" y="278" width="90" height="40" as="geometry"/>
                </mxCell>
                <mxCell id="9" value="" style="ellipse;whiteSpace=wrap;html=1;" parent="1" vertex="1">
                    <mxGeometry x="420" y="278" width="90" height="40" as="geometry"/>
                </mxCell>
                <mxCell id="10" value="Component 1" style="text;html=1;strokeColor=none;fillColor=none;align=center;verticalAlign=middle;whiteSpace=wrap;rounded=0;" parent="1" vertex="1">
                    <mxGeometry x="95" y="288" width="80" height="20" as="geometry"/>
                </mxCell>
                <mxCell id="11" value="Component 2&lt;br&gt;" style="text;html=1;strokeColor=none;fillColor=none;align=center;verticalAlign=middle;whiteSpace=wrap;rounded=0;" parent="1" vertex="1">
                    <mxGeometry x="205" y="288" width="80" height="20" as="geometry"/>
                </mxCell>
                <mxCell id="12" value="Component 3&lt;br&gt;" style="text;html=1;strokeColor=none;fillColor=none;align=center;verticalAlign=middle;whiteSpace=wrap;rounded=0;" parent="1" vertex="1">
                    <mxGeometry x="314" y="288" width="80" height="20" as="geometry"/>
                </mxCell>
                <mxCell id="13" value="Component 4&lt;br&gt;" style="text;html=1;strokeColor=none;fillColor=none;align=center;verticalAlign=middle;whiteSpace=wrap;rounded=0;" parent="1" vertex="1">
                    <mxGeometry x="425" y="288" width="80" height="20" as="geometry"/>
                </mxCell>
                <mxCell id="19" value="" style="endArrow=none;html=1;exitX=0.705;exitY=0;exitDx=0;exitDy=0;exitPerimeter=0;" parent="1" source="4" target="3" edge="1">
                    <mxGeometry width="50" height="50" relative="1" as="geometry">
                        <mxPoint x="370" y="160" as="sourcePoint"/>
                        <mxPoint x="420" y="110" as="targetPoint"/>
                    </mxGeometry>
                </mxCell>
                <mxCell id="20" value="" style="endArrow=none;html=1;entryX=0.5;entryY=1;entryDx=0;entryDy=0;exitX=0.28;exitY=-0.017;exitDx=0;exitDy=0;exitPerimeter=0;" parent="1" source="4" target="2" edge="1">
                    <mxGeometry width="50" height="50" relative="1" as="geometry">
                        <mxPoint x="220" y="210" as="sourcePoint"/>
                        <mxPoint x="270" y="160" as="targetPoint"/>
                    </mxGeometry>
                </mxCell>
            </root>
        </mxGraphModel>
    </diagram>
    <diagram id="sx1ccmbhDIZh2BLo4GK2" name="Page-2">
        <mxGraphModel dx="1738" dy="1706" grid="1" gridSize="10" guides="1" tooltips="1" connect="1" arrows="1" fold="1" page="1" pageScale="1" pageWidth="850" pageHeight="1100" math="0" shadow="0">
            <root>
                <mxCell id="qrsCOyj4nU404JQ4m6B_-0"/>
                <mxCell id="qrsCOyj4nU404JQ4m6B_-1" parent="qrsCOyj4nU404JQ4m6B_-0"/>
                <mxCell id="Cdzmuqc9OZsLJDRAxitC-4" value="" style="ellipse;whiteSpace=wrap;html=1;aspect=fixed;fillColor=#ffffff;strokeColor=#000000;gradientColor=#ffffff;gradientDirection=east;opacity=50;" vertex="1" parent="qrsCOyj4nU404JQ4m6B_-1">
                    <mxGeometry x="360" y="90" width="340" height="340" as="geometry"/>
                </mxCell>
                <mxCell id="Cdzmuqc9OZsLJDRAxitC-5" value="" style="ellipse;whiteSpace=wrap;html=1;aspect=fixed;fillColor=#ffe6cc;strokeColor=#d79b00;opacity=30;" vertex="1" parent="qrsCOyj4nU404JQ4m6B_-1">
                    <mxGeometry x="180" y="90" width="340" height="340" as="geometry"/>
                </mxCell>
                <mxCell id="Cdzmuqc9OZsLJDRAxitC-6" value="Express&lt;br style=&quot;font-size: 20px;&quot;&gt;" style="text;html=1;align=center;verticalAlign=middle;whiteSpace=wrap;rounded=0;opacity=50;fontColor=#000000;fontStyle=1;fontSize=20;" vertex="1" parent="qrsCOyj4nU404JQ4m6B_-1">
                    <mxGeometry x="230" y="190" width="70" height="40" as="geometry"/>
                </mxCell>
                <mxCell id="Cdzmuqc9OZsLJDRAxitC-7" value="React&lt;br&gt;" style="text;html=1;align=center;verticalAlign=middle;whiteSpace=wrap;rounded=0;opacity=50;fontColor=#000000;fontStyle=1;fontSize=20;" vertex="1" parent="qrsCOyj4nU404JQ4m6B_-1">
                    <mxGeometry x="210" y="220" width="70" height="40" as="geometry"/>
                </mxCell>
                <mxCell id="Cdzmuqc9OZsLJDRAxitC-8" value="ReactDOM&lt;br&gt;" style="text;html=1;align=center;verticalAlign=middle;whiteSpace=wrap;rounded=0;opacity=50;fontColor=#000000;fontStyle=1;fontSize=20;" vertex="1" parent="qrsCOyj4nU404JQ4m6B_-1">
                    <mxGeometry x="240" y="250" width="70" height="40" as="geometry"/>
                </mxCell>
                <mxCell id="Cdzmuqc9OZsLJDRAxitC-10" value="React&lt;br&gt;" style="text;html=1;align=center;verticalAlign=middle;whiteSpace=wrap;rounded=0;opacity=50;fontColor=#000000;fontStyle=1;fontSize=20;" vertex="1" parent="qrsCOyj4nU404JQ4m6B_-1">
                    <mxGeometry x="620" y="230" width="70" height="40" as="geometry"/>
                </mxCell>
                <mxCell id="Cdzmuqc9OZsLJDRAxitC-14" value="ReactDOM&lt;br&gt;" style="text;html=1;align=center;verticalAlign=middle;whiteSpace=wrap;rounded=0;opacity=50;fontColor=#000000;fontStyle=1;fontSize=20;" vertex="1" parent="qrsCOyj4nU404JQ4m6B_-1">
                    <mxGeometry x="600" y="260" width="70" height="40" as="geometry"/>
                </mxCell>
                <mxCell id="Cdzmuqc9OZsLJDRAxitC-15" value="" style="rounded=1;whiteSpace=wrap;html=1;strokeColor=#000000;fillColor=#ffffff;gradientColor=#ffffff;fontSize=20;fontColor=#000000;opacity=50;" vertex="1" parent="qrsCOyj4nU404JQ4m6B_-1">
                    <mxGeometry x="380" y="200" width="120" height="50" as="geometry"/>
                </mxCell>
                <mxCell id="Cdzmuqc9OZsLJDRAxitC-16" value="Components&lt;br&gt;" style="text;html=1;strokeColor=none;fillColor=none;align=center;verticalAlign=middle;whiteSpace=wrap;rounded=0;fontSize=20;fontColor=#000000;opacity=50;" vertex="1" parent="qrsCOyj4nU404JQ4m6B_-1">
                    <mxGeometry x="420" y="215" width="40" height="20" as="geometry"/>
                </mxCell>
                <mxCell id="Cdzmuqc9OZsLJDRAxitC-17" value="" style="rounded=1;whiteSpace=wrap;html=1;strokeColor=#000000;fillColor=#ffffff;gradientColor=#ffffff;fontSize=20;fontColor=#000000;opacity=50;" vertex="1" parent="qrsCOyj4nU404JQ4m6B_-1">
                    <mxGeometry x="380" y="260" width="120" height="60" as="geometry"/>
                </mxCell>
                <mxCell id="Cdzmuqc9OZsLJDRAxitC-18" value="&lt;b&gt;Funcionalidades&lt;/b&gt;" style="text;html=1;strokeColor=none;fillColor=none;align=center;verticalAlign=middle;whiteSpace=wrap;rounded=0;fontSize=12;fontColor=#000000;opacity=50;" vertex="1" parent="qrsCOyj4nU404JQ4m6B_-1">
                    <mxGeometry x="420" y="280" width="40" height="20" as="geometry"/>
                </mxCell>
                <mxCell id="Cdzmuqc9OZsLJDRAxitC-21" value="SERVIDOR&lt;br style=&quot;font-size: 20px;&quot;&gt;" style="text;html=1;strokeColor=none;fillColor=none;align=center;verticalAlign=middle;whiteSpace=wrap;rounded=0;fontSize=20;fontColor=#FFFFFF;opacity=50;" vertex="1" parent="qrsCOyj4nU404JQ4m6B_-1">
                    <mxGeometry x="140" y="100" width="40" height="20" as="geometry"/>
                </mxCell>
                <mxCell id="Cdzmuqc9OZsLJDRAxitC-22" value="NAVEGADOR&lt;br&gt;" style="text;html=1;strokeColor=none;fillColor=none;align=center;verticalAlign=middle;whiteSpace=wrap;rounded=0;fontSize=20;fontColor=#FFFFFF;opacity=50;" vertex="1" parent="qrsCOyj4nU404JQ4m6B_-1">
                    <mxGeometry x="713" y="100" width="40" height="20" as="geometry"/>
                </mxCell>
                <mxCell id="Cdzmuqc9OZsLJDRAxitC-23" value="" style="shape=parallelogram;perimeter=parallelogramPerimeter;whiteSpace=wrap;html=1;fontSize=20;opacity=50;" vertex="1" parent="qrsCOyj4nU404JQ4m6B_-1">
                    <mxGeometry x="20" y="260" width="120" height="60" as="geometry"/>
                </mxCell>
                <mxCell id="Cdzmuqc9OZsLJDRAxitC-24" value="&lt;font style=&quot;font-size: 10px&quot;&gt;&lt;font style=&quot;font-size: 10px&quot;&gt;BABEL&lt;/font&gt; / WEBPACK&lt;br&gt;&lt;/font&gt;" style="text;html=1;strokeColor=none;fillColor=none;align=center;verticalAlign=middle;whiteSpace=wrap;rounded=0;fontSize=20;fontColor=#FFFFFF;opacity=50;strokeWidth=4;" vertex="1" parent="qrsCOyj4nU404JQ4m6B_-1">
                    <mxGeometry x="56" y="280" width="40" height="20" as="geometry"/>
                </mxCell>
                <mxCell id="Cdzmuqc9OZsLJDRAxitC-26" value="" style="shape=parallelogram;perimeter=parallelogramPerimeter;whiteSpace=wrap;html=1;fontSize=20;opacity=50;" vertex="1" parent="qrsCOyj4nU404JQ4m6B_-1">
                    <mxGeometry x="720" y="240" width="120" height="60" as="geometry"/>
                </mxCell>
                <mxCell id="Cdzmuqc9OZsLJDRAxitC-27" value="&lt;font style=&quot;font-size: 10px&quot;&gt;&lt;font style=&quot;font-size: 10px&quot;&gt;BABEL&lt;/font&gt; / WEBPACK&lt;br&gt;&lt;/font&gt;" style="text;html=1;strokeColor=none;fillColor=none;align=center;verticalAlign=middle;whiteSpace=wrap;rounded=0;fontSize=20;fontColor=#FFFFFF;opacity=50;strokeWidth=4;" vertex="1" parent="qrsCOyj4nU404JQ4m6B_-1">
                    <mxGeometry x="756" y="260" width="40" height="20" as="geometry"/>
                </mxCell>
                <mxCell id="Cdzmuqc9OZsLJDRAxitC-28" value="" style="endArrow=classic;html=1;fontSize=20;fontColor=#FFFFFF;entryX=1;entryY=0.5;entryDx=0;entryDy=0;exitX=-0.004;exitY=0.584;exitDx=0;exitDy=0;exitPerimeter=0;" edge="1" parent="qrsCOyj4nU404JQ4m6B_-1" source="Cdzmuqc9OZsLJDRAxitC-5" target="Cdzmuqc9OZsLJDRAxitC-23">
                    <mxGeometry width="50" height="50" relative="1" as="geometry">
                        <mxPoint x="110" y="360" as="sourcePoint"/>
                        <mxPoint x="160" y="310" as="targetPoint"/>
                    </mxGeometry>
                </mxCell>
                <mxCell id="Cdzmuqc9OZsLJDRAxitC-29" value="" style="endArrow=classic;html=1;fontSize=20;fontColor=#FFFFFF;entryX=0;entryY=0.25;entryDx=0;entryDy=0;exitX=1;exitY=0.5;exitDx=0;exitDy=0;" edge="1" parent="qrsCOyj4nU404JQ4m6B_-1" source="Cdzmuqc9OZsLJDRAxitC-4" target="Cdzmuqc9OZsLJDRAxitC-26">
                    <mxGeometry width="50" height="50" relative="1" as="geometry">
                        <mxPoint x="150" y="430" as="sourcePoint"/>
                        <mxPoint x="99.3599999999999" y="431.44000000000005" as="targetPoint"/>
                    </mxGeometry>
                </mxCell>
                <mxCell id="Cdzmuqc9OZsLJDRAxitC-31" value="" style="edgeStyle=segmentEdgeStyle;endArrow=classic;html=1;fontSize=20;fontColor=#FFFFFF;entryX=0.5;entryY=1;entryDx=0;entryDy=0;" edge="1" parent="qrsCOyj4nU404JQ4m6B_-1">
                    <mxGeometry width="50" height="50" relative="1" as="geometry">
                        <mxPoint x="830" y="270" as="sourcePoint"/>
                        <mxPoint x="930" y="130" as="targetPoint"/>
                    </mxGeometry>
                </mxCell>
                <mxCell id="Cdzmuqc9OZsLJDRAxitC-32" value="&lt;br&gt;" style="shape=note;whiteSpace=wrap;html=1;size=14;verticalAlign=top;align=left;spacingTop=-6;strokeColor=#000000;strokeWidth=4;fillColor=#ffffff;gradientColor=#ffffff;fontSize=20;fontColor=#FFFFFF;opacity=50;rotation=-90;" vertex="1" parent="qrsCOyj4nU404JQ4m6B_-1">
                    <mxGeometry x="883" y="45" width="100" height="70" as="geometry"/>
                </mxCell>
                <mxCell id="Cdzmuqc9OZsLJDRAxitC-33" value="bundle_client.js" style="text;html=1;strokeColor=none;fillColor=none;align=center;verticalAlign=middle;whiteSpace=wrap;rounded=0;fontSize=20;fontColor=#FFFFFF;opacity=50;" vertex="1" parent="qrsCOyj4nU404JQ4m6B_-1">
                    <mxGeometry x="913" y="140" width="40" height="20" as="geometry"/>
                </mxCell>
                <mxCell id="Cdzmuqc9OZsLJDRAxitC-35" value="" style="whiteSpace=wrap;html=1;aspect=fixed;strokeColor=#000000;strokeWidth=4;fillColor=#ffffff;gradientColor=#ffffff;fontSize=20;fontColor=#FFFFFF;opacity=30;" vertex="1" parent="qrsCOyj4nU404JQ4m6B_-1">
                    <mxGeometry x="820" y="-11" width="226" height="226" as="geometry"/>
                </mxCell>
                <mxCell id="Cdzmuqc9OZsLJDRAxitC-36" value="index.html&lt;br&gt;" style="text;html=1;strokeColor=none;fillColor=none;align=center;verticalAlign=middle;whiteSpace=wrap;rounded=0;fontSize=20;fontColor=#FFFFFF;opacity=0;" vertex="1" parent="qrsCOyj4nU404JQ4m6B_-1">
                    <mxGeometry x="860" y="10" width="40" height="20" as="geometry"/>
                </mxCell>
                <mxCell id="Cdzmuqc9OZsLJDRAxitC-37" value="" style="edgeStyle=segmentEdgeStyle;endArrow=classic;html=1;fontSize=20;fontColor=#FFFFFF;entryX=0.5;entryY=1;entryDx=0;entryDy=0;" edge="1" parent="qrsCOyj4nU404JQ4m6B_-1" source="Cdzmuqc9OZsLJDRAxitC-23">
                    <mxGeometry width="50" height="50" relative="1" as="geometry">
                        <mxPoint x="-160" y="270" as="sourcePoint"/>
                        <mxPoint x="-60" y="130" as="targetPoint"/>
                    </mxGeometry>
                </mxCell>
                <mxCell id="Cdzmuqc9OZsLJDRAxitC-38" value="&lt;br&gt;" style="shape=note;whiteSpace=wrap;html=1;size=14;verticalAlign=top;align=left;spacingTop=-6;strokeColor=#000000;strokeWidth=4;fillColor=#ffffff;gradientColor=#ffffff;fontSize=20;fontColor=#FFFFFF;opacity=50;rotation=-90;" vertex="1" parent="qrsCOyj4nU404JQ4m6B_-1">
                    <mxGeometry x="-107" y="45" width="100" height="70" as="geometry"/>
                </mxCell>
                <mxCell id="Cdzmuqc9OZsLJDRAxitC-39" value="bundle_server.js" style="text;html=1;strokeColor=none;fillColor=none;align=center;verticalAlign=middle;whiteSpace=wrap;rounded=0;fontSize=20;fontColor=#FFFFFF;opacity=50;" vertex="1" parent="qrsCOyj4nU404JQ4m6B_-1">
                    <mxGeometry x="-77" y="140" width="40" height="20" as="geometry"/>
                </mxCell>
                <mxCell id="Cdzmuqc9OZsLJDRAxitC-40" value="" style="whiteSpace=wrap;html=1;aspect=fixed;strokeColor=#FFFFFF;strokeWidth=10;fillColor=#ffffff;gradientColor=#ffffff;fontSize=20;fontColor=#FFFFFF;opacity=10;" vertex="1" parent="qrsCOyj4nU404JQ4m6B_-1">
                    <mxGeometry x="-172" y="-50" width="226" height="226" as="geometry"/>
                </mxCell>
                <mxCell id="Cdzmuqc9OZsLJDRAxitC-41" value="NODE/NODEMON/PM2&lt;br&gt;" style="text;html=1;strokeColor=none;fillColor=none;align=center;verticalAlign=middle;whiteSpace=wrap;rounded=0;fontSize=20;fontColor=#FFFFFF;opacity=0;" vertex="1" parent="qrsCOyj4nU404JQ4m6B_-1">
                    <mxGeometry x="-77" width="40" height="20" as="geometry"/>
                </mxCell>
            </root>
        </mxGraphModel>
    </diagram>
</mxfile>